<svg width="203" height="42" viewBox="0 0 203 42" fill="none" xmlns="http://www.w3.org/2000/svg">
<path d="M6.08663 14.312C6.85463 14.312 7.60129 14.248 8.32663 14.12C9.05196 13.992 9.70263 13.7787 10.2786 13.48C10.876 13.1813 11.3773 12.7973 11.7826 12.328C12.2093 11.8587 12.4866 11.2827 12.6146 10.6H15.5906V33H11.5906V17.192H6.08663V14.312ZM31.0679 10.152C32.6679 10.152 33.9692 10.5253 34.9719 11.272C35.9959 11.9973 36.7852 12.936 37.3399 14.088C37.9159 15.2187 38.2999 16.4667 38.4919 17.832C38.7052 19.1973 38.8119 20.52 38.8119 21.8C38.8119 23.08 38.7052 24.4027 38.4919 25.768C38.2999 27.1333 37.9159 28.392 37.3399 29.544C36.7852 30.6747 35.9959 31.6133 34.9719 32.36C33.9692 33.0853 32.6679 33.448 31.0679 33.448C29.4679 33.448 28.1559 33.0853 27.1319 32.36C26.1292 31.6133 25.3399 30.6747 24.7639 29.544C24.2092 28.392 23.8252 27.1333 23.6119 25.768C23.4199 24.4027 23.3239 23.08 23.3239 21.8C23.3239 20.52 23.4199 19.1973 23.6119 17.832C23.8252 16.4667 24.2092 15.2187 24.7639 14.088C25.3399 12.936 26.1292 11.9973 27.1319 11.272C28.1559 10.5253 29.4679 10.152 31.0679 10.152ZM31.0679 30.408C31.8572 30.408 32.5185 30.184 33.0519 29.736C33.5852 29.2667 34.0012 28.648 34.2999 27.88C34.6199 27.0907 34.8439 26.1733 34.9719 25.128C35.0999 24.0827 35.1639 22.9733 35.1639 21.8C35.1639 20.6267 35.0999 19.528 34.9719 18.504C34.8439 17.4587 34.6199 16.5413 34.2999 15.752C34.0012 14.9627 33.5852 14.344 33.0519 13.896C32.5185 13.4267 31.8572 13.192 31.0679 13.192C30.2572 13.192 29.5852 13.4267 29.0519 13.896C28.5399 14.344 28.1239 14.9627 27.8039 15.752C27.5052 16.5413 27.2919 17.4587 27.1639 18.504C27.0359 19.528 26.9719 20.6267 26.9719 21.8C26.9719 22.9733 27.0359 24.0827 27.1639 25.128C27.2919 26.1733 27.5052 27.0907 27.8039 27.88C28.1239 28.648 28.5399 29.2667 29.0519 29.736C29.5852 30.184 30.2572 30.408 31.0679 30.408ZM48.8491 10.152C50.4491 10.152 51.7505 10.5253 52.7531 11.272C53.7771 11.9973 54.5665 12.936 55.1211 14.088C55.6971 15.2187 56.0811 16.4667 56.2731 17.832C56.4865 19.1973 56.5931 20.52 56.5931 21.8C56.5931 23.08 56.4865 24.4027 56.2731 25.768C56.0811 27.1333 55.6971 28.392 55.1211 29.544C54.5665 30.6747 53.7771 31.6133 52.7531 32.36C51.7505 33.0853 50.4491 33.448 48.8491 33.448C47.2491 33.448 45.9371 33.0853 44.9131 32.36C43.9105 31.6133 43.1211 30.6747 42.5451 29.544C41.9905 28.392 41.6065 27.1333 41.3931 25.768C41.2011 24.4027 41.1051 23.08 41.1051 21.8C41.1051 20.52 41.2011 19.1973 41.3931 17.832C41.6065 16.4667 41.9905 15.2187 42.5451 14.088C43.1211 12.936 43.9105 11.9973 44.9131 11.272C45.9371 10.5253 47.2491 10.152 48.8491 10.152ZM48.8491 30.408C49.6385 30.408 50.2998 30.184 50.8331 29.736C51.3665 29.2667 51.7825 28.648 52.0811 27.88C52.4011 27.0907 52.6251 26.1733 52.7531 25.128C52.8811 24.0827 52.9451 22.9733 52.9451 21.8C52.9451 20.6267 52.8811 19.528 52.7531 18.504C52.6251 17.4587 52.4011 16.5413 52.0811 15.752C51.7825 14.9627 51.3665 14.344 50.8331 13.896C50.2998 13.4267 49.6385 13.192 48.8491 13.192C48.0385 13.192 47.3665 13.4267 46.8331 13.896C46.3211 14.344 45.9051 14.9627 45.5851 15.752C45.2865 16.5413 45.0731 17.4587 44.9451 18.504C44.8171 19.528 44.7531 20.6267 44.7531 21.8C44.7531 22.9733 44.8171 24.0827 44.9451 25.128C45.0731 26.1733 45.2865 27.0907 45.5851 27.88C45.9051 28.648 46.3211 29.2667 46.8331 29.736C47.3665 30.184 48.0385 30.408 48.8491 30.408ZM75.5904 17.416C75.4197 16.7547 75.185 16.1467 74.8864 15.592C74.5877 15.0373 74.2037 14.5573 73.7344 14.152C73.265 13.7467 72.7104 13.4373 72.0704 13.224C71.4517 12.9893 70.7264 12.872 69.8944 12.872C68.6784 12.872 67.6224 13.1173 66.7264 13.608C65.8517 14.0987 65.137 14.76 64.5824 15.592C64.0277 16.4027 63.6117 17.3307 63.3344 18.376C63.0784 19.4213 62.9504 20.488 62.9504 21.576C62.9504 22.664 63.0784 23.7307 63.3344 24.776C63.6117 25.8213 64.0277 26.76 64.5824 27.592C65.137 28.4027 65.8517 29.0533 66.7264 29.544C67.6224 30.0347 68.6784 30.28 69.8944 30.28C70.7904 30.28 71.5797 30.1307 72.2624 29.832C72.945 29.512 73.5317 29.0853 74.0224 28.552C74.513 27.9973 74.897 27.3573 75.1744 26.632C75.4517 25.9067 75.633 25.128 75.7184 24.296H79.6224C79.537 25.6613 79.2384 26.9093 78.7264 28.04C78.2357 29.1707 77.5637 30.152 76.7104 30.984C75.857 31.7947 74.8544 32.424 73.7024 32.872C72.5504 33.32 71.281 33.544 69.8944 33.544C68.1877 33.544 66.6517 33.2347 65.2864 32.616C63.9424 31.976 62.801 31.112 61.8624 30.024C60.9237 28.936 60.1984 27.6667 59.6864 26.216C59.1957 24.7653 58.9504 23.2187 58.9504 21.576C58.9504 19.9547 59.1957 18.4187 59.6864 16.968C60.1984 15.5173 60.9237 14.248 61.8624 13.16C62.801 12.072 63.9424 11.208 65.2864 10.568C66.6517 9.928 68.1877 9.608 69.8944 9.608C71.1744 9.608 72.3797 9.78933 73.5104 10.152C74.641 10.4933 75.633 11.0053 76.4864 11.688C77.361 12.3493 78.065 13.16 78.5984 14.12C79.1317 15.08 79.4624 16.1787 79.5904 17.416H75.5904ZM83.0041 10.152H87.0041V23.464C87.0041 24.232 87.0361 25.0107 87.1001 25.8C87.1855 26.5893 87.3988 27.304 87.7401 27.944C88.1028 28.5627 88.6361 29.0747 89.3401 29.48C90.0655 29.8853 91.0788 30.088 92.3801 30.088C93.6815 30.088 94.6841 29.8853 95.3881 29.48C96.1135 29.0747 96.6468 28.5627 96.9881 27.944C97.3508 27.304 97.5641 26.5893 97.6281 25.8C97.7135 25.0107 97.7561 24.232 97.7561 23.464V10.152H101.756V24.776C101.756 26.248 101.532 27.528 101.084 28.616C100.636 29.704 99.9961 30.6213 99.1641 31.368C98.3535 32.0933 97.3721 32.6373 96.2201 33C95.0681 33.3627 93.7881 33.544 92.3801 33.544C90.9721 33.544 89.6921 33.3627 88.5401 33C87.3881 32.6373 86.3961 32.0933 85.5641 31.368C84.7535 30.6213 84.1241 29.704 83.6761 28.616C83.2281 27.528 83.0041 26.248 83.0041 24.776V10.152ZM110.354 19.72H116.882C117.842 19.72 118.642 19.4533 119.282 18.92C119.922 18.3653 120.242 17.576 120.242 16.552C120.242 15.4 119.954 14.5893 119.378 14.12C118.802 13.6507 117.97 13.416 116.882 13.416H110.354V19.72ZM106.354 10.152H117.458C119.506 10.152 121.149 10.6213 122.386 11.56C123.623 12.4987 124.242 13.9173 124.242 15.816C124.242 16.968 123.954 17.96 123.378 18.792C122.823 19.6027 122.023 20.232 120.978 20.68V20.744C122.386 21.0427 123.453 21.7147 124.178 22.76C124.903 23.784 125.266 25.0747 125.266 26.632C125.266 27.528 125.106 28.3707 124.786 29.16C124.466 29.928 123.965 30.6 123.282 31.176C122.599 31.7307 121.725 32.1787 120.658 32.52C119.591 32.84 118.322 33 116.85 33H106.354V10.152ZM110.354 29.736H117.426C118.642 29.736 119.581 29.4267 120.242 28.808C120.925 28.168 121.266 27.272 121.266 26.12C121.266 24.9893 120.925 24.1253 120.242 23.528C119.581 22.9093 118.642 22.6 117.426 22.6H110.354V29.736ZM128.885 10.152H145.333V13.608H132.885V19.592H144.405V22.856H132.885V29.544H145.557V33H128.885V10.152Z" fill="black"/>
<path d="M188 16.7499V26.2501L173 31L158 26.2501V16.7499L173 12L188 16.7499Z" stroke="black" stroke-width="3" stroke-linecap="round"/>
<path d="M173.222 30.9455V20.937L158.352 16.7305" stroke="black" stroke-width="3" stroke-linecap="round"/>
<path d="M173.211 21.0804L187.515 16.7305" stroke="black" stroke-width="3" stroke-linecap="round"/>
</svg>
